<svg xmlns="http://www.w3.org/2000/svg" width="708" height="708"><path fill="#fdfdfd" d="M236 103h225c38 0 75 6 104 32l3 2q29 28 39 67h1l1 254c0 41-11 79-41 109-32 31-74 37-117 37H253q-27 1-53-4l-2-1q-28-6-50-25l-2-2a138 138 0 0 1-46-87V206l2-5 2-6c10-32 32-60 62-76q33-16 70-16"/><path fill="#4d944d" d="m401 267 6 5-5 9-2 2-2 3-2 2-5 7-8-4q-15-9-32-9h-3q-8 0-15 4-4 4-4 10t4 10q13 7 29 10c17 4 37 10 47 26q8 16 3 34t-20 27a98 98 0 0 1-75 1q-13-5-23-14l-5-3q1-5 5-9l13-16 10 6q20 16 45 13l9-3 4-1v-2h2q3-6 2-13-4-9-15-12l-17-4c-28-7-28-7-40-17l-2-2q-9-8-10-21-2-21 10-37c25-25 69-20 96-2"/><path fill="#4a8e4d" d="M606 480h1c-1 35-18 67-43 91-32 28-72 33-113 33H253q-27 1-53-4l-2-1q-28-6-50-25l-2-2a134 134 0 0 1-45-91q3 3 3 7a125 125 0 0 0 99 91l2 1q15 3 30 2h225a193 193 0 0 0 60-7q27-8 47-27 3-4 7-5l2-4 4-4a128 128 0 0 0 25-52z"/><path fill="#4d944c" d="M222 253h3a73 73 0 0 1 34 7q10 4 17 11l6 5-5 8-2 1-2 3-4 3-1 2-5 6-9-5-12-7-2-1a48 48 0 0 0-60 28q-6 22 3 42l4 6 1 2q8 8 17 12l2 1c11 4 26 3 36-1q9-4 15-11l4-1q4 2 6 5l4 4 7 8 4 3c-4 10-19 17-29 22q-32 12-65-1-11-5-20-13l-3-2a81 81 0 0 1-3-113q16-16 37-22l4-1q9-2 18-1"/><path fill="#4c934b" d="M413 255h35l9 22 16 44 1 2 16 43 1-4 25-66 14-40h36l-5 16-1 2-1 4-2 3-7 19-1 3-34 88-3 6-1 4-2 3-2 4h-36l-9-23-7-20-16-41-3-6-1-3-7-18-1-3-4-11c-10-25-10-25-10-28"/><path fill="#5c9165" d="M101 481q3 3 3 7a126 126 0 0 0 23 46l-2 2-3-5-4 2-1 3-7-14-1-3q-8-18-8-38"/><path fill="#4e905c" d="M606 480h1q-2 25-12 49l-2-2v-4h-2l-1 2-4 5-2-1 2-3a132 132 0 0 0 19-43z"/><path fill="#558c5a" d="M111 516q7 2 10 9l2 3 2 3 2 3-2 2-3-5-4 2-1 3q-4-4-6-10l-1-3-1-6z"/><path fill="#79a57c" d="M413 255h35l2 6-2-1v-3h-32l-1 3z"/><path fill="#60966c" d="M606 480h1q-1 15-5 30l-4-5 2-6q5-9 6-19"/><path fill="#effaea" d="m334 284 2 1v3l-2 1-3 5v10q-4-3-3-8 0-7 6-12"/><path fill="#ebfce7" d="m574 538 3 1-7 7-2 3-3 2-7 5-1-3 7-3v-3l5-3z"/><path fill="#599257" d="M365 408v3h-21l-1-2z"/><path fill="#629a66" d="M509 313h3q-1 9-6 17l-3 2z"/><path fill="#e5f8e3" d="M345 281h15v1q-10 3-20 2l-2-2z"/><path fill="#5f9060" d="m297 375 1 3q-2 6-5 6l1 2 2 6-7-5q1-5 5-8l2-2z"/><path fill="#5f9765" d="M301 275v9l-3 4v4l-1 3-2 1q0-11 6-21"/><path fill="#ceecd0" d="M342 252h32l2 3h-4l-18-2h-12z"/><path fill="#5f8d5f" d="m572 543 1 2-2 4-3 1-4 5q-1 2-6 3l7-9 3-2 2-2z"/><path fill="#629866" d="M525 270h1q2 8-3 15l-3 3v-6z"/><path fill="#ddf3da" d="m250 256 10 1 1 3 4 1 4 2-1 3-2-1-10-5-3-2-3-1z"/><path fill="#609266" d="M594 513q1 5-1 8c-4 8-4 8-7 9h-2z"/><path fill="#649765" d="m327 339 15 1v3l2 1-17-4z"/><path fill="#e5f8e2" d="m193 294 1 3-2 3h-3l-1 3-3 4-2 1q2-8 10-14"/><path fill="#5c9b65" d="m475 329 4 9v3l1 2-4 1v-3l-2-7z"/><path fill="#62906b" d="M101 481q4 4 4 8l1 4-1 5-2 1-1-6-1-3z"/><path fill="#518d54" d="M507 400h3l-3 8h-15v-1h12v-2l2-1z"/><path fill="#629365" d="m213 281 3 3-11 3v-3c5-3 5-3 8-3"/><path fill="#dff2d6" d="M224 283h8v1q-10 3-20 1 6-3 12-2"/><path fill="#67926d" d="M276 273q5 1 5 3l1 2-5 4z"/><path fill="#5a9060" d="m277 387 4 1-5 5-3 2-6 2 2-3h2v-2l3-1 1-2h2z"/><path fill="#639662" d="m262 364 2 1v3l-4-2-1 2-3 4-4-1 4-4 2-2z"/><path fill="#e4f7e4" d="m432 307 4 8v2l1 2-5 1z"/><path fill="#548956" d="M556 557q1 3-2 5l-1 2-2 2-2 1-2-1v-3l5-3 2-2z"/><path fill="#679667" d="m233 282 10 1 1 4-12-3z"/><path fill="#699b63" d="m358 253 14 1v1l-6 1h-4l-7-1h3z"/><path fill="#639863" d="M523 360h3l-1 5-1 3-3 4-1-4h2v-3z"/><path fill="#eaf8ea" d="m310 262 4 1-9 7-3-2q1-3 5-4h3z"/><path fill="#ecfae6" d="m538 563 5 2q-1 4-5 4h-2l-2 1-1-2 4-1z"/><path fill="#e1f4e1" d="m293 376 2 1-5 7-1 3 2 1h-3q-1-4 1-8z"/><path fill="#def6df" d="M399 283q0 8-7 13l-3-1 2-2z"/><path fill="#e8fae4" d="m377 369 2 2-2 4h-2v2l-5 2v-2h2v-2q2-4 5-6"/><path fill="#e2f8e3" d="m274 371 1 2h2v4h2l-1 4-6-7z"/><path fill="#639765" d="m502 333 2 3-2 7h-3z"/><path fill="#d8f4dc" d="m549 300 2 2q0 4-3 8h-2z"/><path fill="#659463" d="M155 287h1q1 5-2 9l-2 2h-2z"/><path fill="#679b67" d="m276 378 7 6-1 3-2-1v-2l-4-1z"/><path fill="#e4fae3" d="M520 281q2 5-1 8l-1 3-1 2v-9z"/><path fill="#659c69" d="m165 275-2 7-2 2-1 2-3-2z"/><path fill="#5a965c" d="M338 253h12l-1 2-6 1h-5z"/><path fill="#e1f5e1" d="m160 383 9 9-6-1v-2h-2z"/><path fill="#61996b" d="m367 280 5 2v2h3v2l-11-3 3-1z"/><path fill="#599158" d="m232 280 1 3h-13v-1l4-1 2-1z"/><path fill="#e4f6de" d="M378 288q6 2 10 6-5 1-9-2z"/><path fill="#5b8c5a" d="m573 558 2 2-7 7-2-2 4-4h2z"/><path fill="#56865a" d="m145 553 5 3 2 2 2 1v1h-5v-2l-3-3-2-1z"/><path fill="#598e5b" d="M407 383h2q-1 5-6 9l1-6 3-1z"/><path fill="#eff8e9" d="M314 365h2v2l5 1-1 4-7-5z"/><path fill="#669662" d="m254 292 2 1 9 3-2 3z"/><path fill="#569059" d="m384 289 5 1v2h3l-1 3q-6 0-6-4z"/><path fill="#e4f7e8" d="M453 268h3l1 6 2 4h-3z"/><path fill="#e3f4db" d="M320 256h6q-4 4-10 5 1-6 4-5"/><path fill="#5a8757" d="M129 554h4l4 7-1 2-5-6z"/><path fill="#4b9056" d="m111 516 4 2-1 3-4 1-1-5z"/><path fill="#598f5b" d="m389 404-9 3-2-2c7-2 7-2 11-1"/><path fill="#5c9466" d="m187 403 11 1 1 2h-8l-2-1-2-1z"/><path fill="#5e9260" d="M409 345q4 4 3 9l1 3v3l-3-4-1-3-1-3z"/><path fill="#d4eed0" d="m328 292 3 8v4q-3-2-3-6z"/><path fill="#e7f7e3" d="m392 402 2 2-4 3-5-1z"/><path fill="#5b9361" d="m197 372 8 4v1l-8-1-1-2z"/><path fill="#dcf2d6" d="M148 363q4 4 5 10h-3z"/><path fill="#639968" d="m497 346 2 1v6l-4 1z"/><path fill="#659967" d="m517 292 3 1-2 5-3 1z"/><path fill="#578f58" d="m522 576-7 4-4-2 4-2z"/><path fill="#669568" d="m247 376-5 4-6-2 7-2z"/><path fill="#dff4e4" d="m242 375 3 1-4 2h-3l-5 1 1-3h3z"/><path fill="#d6f0d0" d="M342 344c8 1 8 1 10 3h-8z"/><path fill="#5b8d5b" d="m302 321 6 3-2 4-5-6z"/><path fill="#d6f2d7" d="M180 312h1l-1 10h-2z"/><path fill="#e9fbe6" d="m258 296 2 1 6 1-4 4-4-4z"/><path fill="#e9fbe5" d="m252 292 5 2v3l-6-2z"/><path fill="#e5f8df" d="m152 288 3 1-4 7-1-2h-2l1-3h2z"/><path fill="#599257" d="m167 273 3 3h-2v4h-3z"/><path fill="#6aa26d" d="M530 256q3 5 1 6l-4 4z"/><path fill="#53915d" d="M518 592h2v4l-6 1 1-3h3z"/><path fill="#e9f8e8" d="M550 561q-3 4-7 4v-3q4-3 7-1"/><path fill="#e5f7e0" d="m118 516 3 7-4-2-1-4z"/><path fill="#dcf5e1" d="M250 407v2q-5 3-10 1 4-3 10-3"/><path fill="#dcf3de" d="m557 279 1 4 2 1-4 4-2-1z"/><path fill="#ebf8e5" d="m406 274 2 1q-1 4-5 6 0-4 3-7"/><path fill="#5e9362" d="M453 270q4 4 4 10h-2l-3-9z"/><path fill="#dff5dc" d="m174 264 4 2-8 5q1-5 4-7"/><path fill="#5a8759" d="M133 543q5 2 8 6l-5-1v-2h-3z"/><path fill="#5d905f" d="m400 393 1 3-5 4-2-1 2-4h4z"/><path fill="#d6efd6" d="m404 391 1 4-5 3-2-1 3-1 2-4z"/><path fill="#d4f3d9" d="M410 380h2l-1 6-4 1z"/><path fill="#e7f8e7" d="m282 379 3 1-1 6-5-5h3z"/><path fill="#e0f0d9" d="m191 367 6 1 1 4q-5-1-7-5"/><path fill="#63955a" d="M443 333h2v3h2l-1 5z"/><path fill="#d8f4d7" d="M368 315v3l-10-2q4-3 10-1"/><path fill="#5f915e" d="m401 268 5 3v4l-5-4z"/><path fill="#639865" d="m312 263 2 3q-2 3-5 2h-2z"/><path fill="#669d6a" d="m202 255-2 4-6-1q3-4 8-3"/></svg>